<svg viewBox="0 0 200 200" xmlns="http://www.w3.org/2000/svg">
  <rect width="200" height="200" rx="24" fill="#DC2626" />
  <g fill="#000000">
    <rect x="91" y="20" width="18" height="14" rx="2" transform="rotate(0 100 82)" />
    <rect x="91" y="20" width="18" height="14" rx="2" transform="rotate(36 100 82)" />
    <rect x="91" y="20" width="18" height="14" rx="2" transform="rotate(72 100 82)" />
    <rect x="91" y="20" width="18" height="14" rx="2" transform="rotate(108 100 82)" />
    <rect x="91" y="20" width="18" height="14" rx="2" transform="rotate(144 100 82)" />
    <rect x="91" y="20" width="18" height="14" rx="2" transform="rotate(180 100 82)" />
    <rect x="91" y="20" width="18" height="14" rx="2" transform="rotate(216 100 82)" />
    <rect x="91" y="20" width="18" height="14" rx="2" transform="rotate(252 100 82)" />
    <rect x="91" y="20" width="18" height="14" rx="2" transform="rotate(288 100 82)" />
    <rect x="91" y="20" width="18" height="14" rx="2" transform="rotate(324 100 82)" />
    <circle cx="100" cy="82" r="54" />
  </g>
  <circle cx="100" cy="82" r="44" fill="#DC2626" />
  <defs>
    <path id="fsbnTextArc" d="M 60,82 A 40,40 0 1,1 140,82" fill="none" />
  </defs>
  <text fill="#FACC15" fontSize="10.5" fontWeight="900" letterSpacing="0.8">
    <textPath href="#fsbnTextArc" startOffset="50%" textAnchor="middle">
      FEDERASI SERIKAT BURUH NUSANTARA
    </textPath>
  </text>
  <circle cx="100" cy="82" r="28" fill="#DC2626" />
  <polygon points="100,56 106,73 124,73 110,84 115,101 100,91 85,101 90,84 76,73 94,73" fill="#FACC15" />
  <g>
    <path d="M96,82 L104,82 L102,96 L98,96 Z" fill="#000000" />
    <path d="M94,80 L106,80 L104,84 L96,84 Z" fill="#000000" />
    <path d="M100,66 C105,71 106,76 103,79 C101,81 99,81 97,79 C94,76 95,71 100,66 Z" fill="#F97316" />
    <path d="M100,70 C103,73 103,76 101,78 C100,79 99,79 98,78 C96,76 97,73 100,70 Z" fill="#FEF08A" />
  </g>
  <text x="100" y="174" fill="#FACC15" fontSize="36" fontWeight="900" fontFamily="system-ui, -apple-system, sans-serif" textAnchor="middle" letterSpacing="2">
    FSBN
  </text>
</svg>
